<svg width="144" height="48" viewBox="0 0 144 48" fill="none" xmlns="http://www.w3.org/2000/svg">
<path d="M3.52273 39V9.90909H13.6932C15.7197 9.90909 17.3911 10.2595 18.7074 10.9602C20.0237 11.6515 21.0038 12.5843 21.6477 13.7585C22.2917 14.9233 22.6136 16.2159 22.6136 17.6364C22.6136 18.8864 22.3911 19.9186 21.946 20.733C21.5104 21.5473 20.9328 22.1913 20.2131 22.6648C19.5028 23.1383 18.7311 23.4886 17.8977 23.7159V24C18.7879 24.0568 19.6828 24.3693 20.5824 24.9375C21.482 25.5057 22.2348 26.3201 22.8409 27.3807C23.447 28.4413 23.75 29.7386 23.75 31.2727C23.75 32.7311 23.4186 34.0426 22.7557 35.2074C22.0928 36.3722 21.0464 37.2955 19.6165 37.9773C18.1866 38.6591 16.3258 39 14.0341 39H3.52273ZM7.04545 35.875H14.0341C16.3352 35.875 17.9688 35.4299 18.9347 34.5398C19.91 33.6402 20.3977 32.5511 20.3977 31.2727C20.3977 30.2879 20.1468 29.3788 19.6449 28.5455C19.143 27.7027 18.428 27.0303 17.5 26.5284C16.572 26.017 15.4735 25.7614 14.2045 25.7614H7.04545V35.875ZM7.04545 22.6932H13.5795C14.6402 22.6932 15.5966 22.4848 16.4489 22.0682C17.3106 21.6515 17.9924 21.0644 18.4943 20.3068C19.0057 19.5492 19.2614 18.6591 19.2614 17.6364C19.2614 16.358 18.8163 15.2737 17.9261 14.3835C17.036 13.4839 15.625 13.0341 13.6932 13.0341H7.04545V22.6932Z" fill="black"/>
<circle cx="44.0938" cy="24" r="14.5938" stroke="black"/>
<circle cx="44.0938" cy="24" r="12.0781" stroke="black"/>
<circle cx="44.0938" cy="21.4844" r="9.5625" stroke="black"/>
<circle cx="44.0938" cy="17.7109" r="5.78906" stroke="black"/>
<line x1="44.5938" y1="3.875" x2="44.5938" y2="44.125" stroke="black"/>
<path d="M64.2557 39V17.1818H67.4943V20.4773H67.7216C68.1193 19.3977 68.839 18.5218 69.8807 17.8494C70.9223 17.1771 72.0966 16.8409 73.4034 16.8409C73.6496 16.8409 73.9574 16.8456 74.3267 16.8551C74.696 16.8646 74.9754 16.8788 75.1648 16.8977V20.3068C75.0511 20.2784 74.7907 20.2358 74.3835 20.179C73.9858 20.1127 73.5644 20.0795 73.1193 20.0795C72.0587 20.0795 71.1117 20.3021 70.2784 20.7472C69.4545 21.1828 68.8011 21.7888 68.3182 22.5653C67.8447 23.3324 67.608 24.2083 67.608 25.1932V39H64.2557ZM94.593 22.0682L91.5817 22.9205C91.3923 22.4186 91.1129 21.9309 90.7436 21.4574C90.3838 20.9744 89.8913 20.5767 89.2663 20.2642C88.6413 19.9517 87.8411 19.7955 86.8658 19.7955C85.5305 19.7955 84.4179 20.1032 83.5277 20.7188C82.647 21.3248 82.2067 22.0966 82.2067 23.0341C82.2067 23.8674 82.5097 24.5256 83.1158 25.0085C83.7218 25.4915 84.6688 25.8939 85.9567 26.2159L89.1953 27.0114C91.1461 27.4848 92.5997 28.2093 93.5561 29.1847C94.5125 30.1506 94.9908 31.3958 94.9908 32.9205C94.9908 34.1705 94.6309 35.2879 93.9112 36.2727C93.201 37.2576 92.2067 38.0341 90.9283 38.6023C89.6499 39.1705 88.1631 39.4545 86.468 39.4545C84.2427 39.4545 82.4008 38.9716 80.9425 38.0057C79.4841 37.0398 78.5608 35.6288 78.1726 33.7727L81.3544 32.9773C81.6574 34.1515 82.2304 35.0322 83.0732 35.6193C83.9254 36.2064 85.0381 36.5 86.4112 36.5C87.9737 36.5 89.2143 36.1686 90.1328 35.5057C91.0608 34.8333 91.5249 34.0284 91.5249 33.0909C91.5249 32.3333 91.2597 31.6989 90.7294 31.1875C90.1991 30.6667 89.3847 30.2784 88.2862 30.0227L84.6499 29.1705C82.6518 28.697 81.1839 27.9631 80.2464 26.9688C79.3184 25.965 78.8544 24.7102 78.8544 23.2045C78.8544 21.9735 79.2 20.8845 79.8913 19.9375C80.5921 18.9905 81.5438 18.2472 82.7464 17.7074C83.9586 17.1676 85.3317 16.8977 86.8658 16.8977C89.0249 16.8977 90.7199 17.3712 91.951 18.3182C93.1915 19.2652 94.0722 20.5152 94.593 22.0682ZM108.901 39.4545C106.855 39.4545 105.094 38.9716 103.616 38.0057C102.139 37.0398 101.003 35.7093 100.207 34.0142C99.4119 32.3191 99.0142 30.3826 99.0142 28.2045C99.0142 25.9886 99.4214 24.0331 100.236 22.3381C101.06 20.6335 102.205 19.303 103.673 18.3466C105.151 17.3807 106.874 16.8977 108.844 16.8977C110.378 16.8977 111.76 17.1818 112.991 17.75C114.223 18.3182 115.231 19.1136 116.017 20.1364C116.803 21.1591 117.291 22.3523 117.48 23.7159H114.128C113.872 22.7216 113.304 21.8409 112.423 21.0739C111.552 20.2973 110.378 19.9091 108.901 19.9091C107.594 19.9091 106.448 20.25 105.463 20.9318C104.488 21.6042 103.725 22.5559 103.176 23.7869C102.636 25.0085 102.366 26.4432 102.366 28.0909C102.366 29.7765 102.632 31.2443 103.162 32.4943C103.702 33.7443 104.459 34.715 105.435 35.4062C106.42 36.0975 107.575 36.4432 108.901 36.4432C109.772 36.4432 110.562 36.2917 111.273 35.9886C111.983 35.6856 112.584 35.25 113.077 34.6818C113.569 34.1136 113.92 33.4318 114.128 32.6364H117.48C117.291 33.9242 116.822 35.0843 116.074 36.1165C115.335 37.1392 114.355 37.9536 113.134 38.5597C111.921 39.1562 110.51 39.4545 108.901 39.4545ZM125.733 25.875V39H122.381V9.90909H125.733V20.5909H126.017C126.528 19.464 127.295 18.5691 128.318 17.9062C129.35 17.2339 130.723 16.8977 132.438 16.8977C133.924 16.8977 135.226 17.196 136.344 17.7926C137.461 18.3797 138.328 19.2841 138.943 20.5057C139.568 21.7178 139.881 23.2614 139.881 25.1364V39H136.528V25.3636C136.528 23.6307 136.079 22.2907 135.179 21.3438C134.289 20.3873 133.053 19.9091 131.472 19.9091C130.373 19.9091 129.388 20.1411 128.517 20.6051C127.655 21.0691 126.973 21.7462 126.472 22.6364C125.979 23.5265 125.733 24.6061 125.733 25.875Z" fill="black"/>
</svg>
