<svg width="28" height="28" viewBox="0 0 28 28" fill="none" xmlns="http://www.w3.org/2000/svg">
<path d="M14 2.33325C20.4435 2.33325 25.6667 7.55642 25.6667 13.9999C25.6667 20.4434 20.4435 25.6666 14 25.6666C7.55651 25.6666 2.33334 20.4434 2.33334 13.9999C2.33334 7.55642 7.55651 2.33325 14 2.33325ZM14.1867 18.6666C13.058 18.6653 11.9414 18.8986 10.9077 19.3517C9.87401 19.8048 8.94575 20.4678 8.18184 21.2986C9.83332 22.6189 11.8856 23.3366 14 23.3333C16.2077 23.3364 18.3446 22.554 20.0282 21.1259C19.2684 20.3463 18.3599 19.7269 17.3566 19.3045C16.3532 18.8821 15.2753 18.6652 14.1867 18.6666ZM14 4.66659C12.2641 4.66663 10.5626 5.15078 9.08675 6.06463C7.61088 6.97849 6.4191 8.28583 5.64536 9.83975C4.87161 11.3937 4.54655 13.1326 4.70672 14.8611C4.86688 16.5896 5.50592 18.2391 6.55201 19.6244C7.53244 18.5836 8.71565 17.7547 10.0287 17.1886C11.3418 16.6226 12.7568 16.3315 14.1867 16.3333C15.5653 16.3315 16.9306 16.602 18.2044 17.1294C19.4781 17.6567 20.6351 18.4305 21.609 19.4063C22.6013 18.0099 23.1901 16.3674 23.311 14.6586C23.4319 12.9499 23.0802 11.2408 22.2944 9.71862C21.5086 8.19645 20.3191 6.9199 18.8561 6.02879C17.3931 5.13769 15.713 4.66641 14 4.66659ZM14 5.83325C15.2377 5.83325 16.4247 6.32492 17.2998 7.20009C18.175 8.07526 18.6667 9.26224 18.6667 10.4999C18.6667 11.7376 18.175 12.9246 17.2998 13.7998C16.4247 14.6749 15.2377 15.1666 14 15.1666C12.7623 15.1666 11.5753 14.6749 10.7002 13.7998C9.82501 12.9246 9.33334 11.7376 9.33334 10.4999C9.33334 9.26224 9.82501 8.07526 10.7002 7.20009C11.5753 6.32492 12.7623 5.83325 14 5.83325ZM14 8.16659C13.3812 8.16659 12.7877 8.41242 12.3501 8.85C11.9125 9.28759 11.6667 9.88108 11.6667 10.4999C11.6667 11.1188 11.9125 11.7122 12.3501 12.1498C12.7877 12.5874 13.3812 12.8333 14 12.8333C14.6188 12.8333 15.2123 12.5874 15.6499 12.1498C16.0875 11.7122 16.3333 11.1188 16.3333 10.4999C16.3333 9.88108 16.0875 9.28759 15.6499 8.85C15.2123 8.41242 14.6188 8.16659 14 8.16659Z" fill="black"/>
</svg>
