<svg width="40" height="40" viewBox="0 0 40 40" fill="none" xmlns="http://www.w3.org/2000/svg">
<path d="M27.4999 5C32.5633 5 36.6666 9.16667 36.6666 15C36.6666 26.6667 24.1666 33.3333 19.9999 35.8333C15.8333 33.3333 3.33325 26.6667 3.33325 15C3.33325 9.16667 7.49992 5 12.4999 5C15.5999 5 18.3333 6.66667 19.9999 8.33333C21.6666 6.66667 24.3999 5 27.4999 5ZM21.5566 31.0067C22.9523 30.1368 24.2988 29.1903 25.5899 28.1717C30.5583 24.2217 33.3333 19.905 33.3333 15C33.3333 11.0667 30.7716 8.33333 27.4999 8.33333C25.7066 8.33333 23.7666 9.28333 22.3566 10.69L19.9999 13.0467L17.6433 10.69C16.2333 9.28333 14.2933 8.33333 12.4999 8.33333C9.26658 8.33333 6.66659 11.095 6.66659 15C6.66659 19.9067 9.44325 24.2217 14.4083 28.1717C15.6499 29.16 16.9749 30.0817 18.4433 31.005C18.9416 31.32 19.4349 31.6217 19.9999 31.9583C20.5649 31.6217 21.0583 31.32 21.5566 31.0067Z" fill="black"/>
</svg>
