<svg width="25" height="25" viewBox="0 0 25 25" fill="none" xmlns="http://www.w3.org/2000/svg">
<path d="M18.7823 17.3093L23.2437 21.7697L21.7698 23.2437L17.3094 18.7822C15.6497 20.1126 13.5854 20.8363 11.4583 20.8333C6.28331 20.8333 2.08331 16.6333 2.08331 11.4583C2.08331 6.28325 6.28331 2.08325 11.4583 2.08325C16.6333 2.08325 20.8333 6.28325 20.8333 11.4583C20.8363 13.5853 20.1127 15.6496 18.7823 17.3093ZM16.6927 16.5364C18.0147 15.1769 18.753 13.3545 18.75 11.4583C18.75 7.43013 15.4864 4.16659 11.4583 4.16659C7.43019 4.16659 4.16665 7.43013 4.16665 11.4583C4.16665 15.4864 7.43019 18.7499 11.4583 18.7499C13.3546 18.7529 15.1769 18.0146 16.5364 16.6926L16.6927 16.5364Z" fill="black"/>
</svg>
